<svg class="svg-icon" style="width: 1em; height: 1em;vertical-align: middle;fill: currentColor;overflow: hidden;" viewBox="0 0 1024 1024" version="1.1" xmlns="http://www.w3.org/2000/svg"><path d="M448 96H128a32 32 0 0 0-32 32v320a32 32 0 0 0 32 32h320a32 32 0 0 0 32-32V128a32 32 0 0 0-32-32z m-32 320H160V160h256zM896 96H576a32 32 0 0 0-32 32v320a32 32 0 0 0 32 32h320a32 32 0 0 0 32-32V128a32 32 0 0 0-32-32z m-32 320H608V160h256zM448 544H128a32 32 0 0 0-32 32v320a32 32 0 0 0 32 32h320a32 32 0 0 0 32-32V576a32 32 0 0 0-32-32z m-32 320H160V608h256zM896 544H576a32 32 0 0 0-32 32v320a32 32 0 0 0 32 32h320a32 32 0 0 0 32-32V576a32 32 0 0 0-32-32z m-32 320H608V608h256z"  /></svg>