<svg class="svg-icon" style="width: 1em; height: 1em;vertical-align: middle;fill: currentColor;overflow: hidden;" viewBox="0 0 1024 1024" version="1.1" xmlns="http://www.w3.org/2000/svg"><path d="M805.4784 184.4224H218.5216c-18.7392 0-33.9968 15.2576-33.9968 33.9968v587.0592c0 18.7392 15.2576 33.9968 33.9968 33.9968h587.0592c18.7392 0 33.9968-15.2576 33.9968-33.9968V218.5216c0-18.7392-15.36-34.0992-34.0992-34.0992z m-7.168 596.2752c0 9.728-7.8848 17.6128-17.6128 17.6128H243.3024c-9.728 0-17.6128-7.8848-17.6128-17.6128V243.3024c0-9.728 7.8848-17.6128 17.6128-17.6128h537.4976c9.728 0 17.6128 7.8848 17.6128 17.6128v537.3952z"  /><path d="M754.688 359.1168c-7.9872-7.9872-20.992-7.9872-28.9792 0L465.7152 619.1104 314.4704 467.8656c-7.9872-7.9872-20.992-7.9872-28.9792 0-7.9872 7.9872-7.9872 20.992 0 28.9792l165.2736 165.2736c0.1024 0.1024 0.3072 0.3072 0.4096 0.512 3.9936 3.9936 9.216 5.9392 14.5408 5.9392 5.2224 0 10.5472-1.9456 14.5408-5.9392 0.1024-0.1024 0.3072-0.3072 0.4096-0.512L754.688 388.096c7.9872-7.9872 7.9872-21.0944 0-28.9792z"  /></svg>