<?xml version="1.0" encoding="iso-8859-1"?>
<!-- Uploaded to: SVG Repo, www.svgrepo.com, Generator: SVG Repo Mixer Tools -->
<!DOCTYPE svg PUBLIC "-//W3C//DTD SVG 1.1//EN" "http://www.w3.org/Graphics/SVG/1.1/DTD/svg11.dtd">
<svg fill="#000000" version="1.1" id="Capa_1" xmlns="http://www.w3.org/2000/svg" xmlns:xlink="http://www.w3.org/1999/xlink" 
	 width="800px" height="800px" viewBox="0 0 606.193 606.193"
	 xml:space="preserve">
<g>
	<g>
		<g>
			<path d="M130.02,0.5h-70.87C27.09,0.5,1.01,26.582,1.01,58.64v70.87c0,32.059,26.081,58.14,58.14,58.14h70.87
				c32.059,0,58.14-26.082,58.14-58.14V58.64C188.16,26.582,162.078,0.5,130.02,0.5z M145.32,129.51c0,8.45-6.85,15.3-15.3,15.3
				h-70.87c-8.45,0-15.3-6.85-15.3-15.3V58.64c0-8.45,6.85-15.3,15.3-15.3h70.87c8.45,0,15.3,6.85,15.3,15.3V129.51z"/>
			<path d="M130.02,188.15h-70.87c-32.334,0-58.64-26.306-58.64-58.64V58.64C0.51,26.306,26.815,0,59.149,0h70.87
				c32.334,0,58.64,26.306,58.64,58.64v70.87C188.66,161.845,162.354,188.15,130.02,188.15z M59.149,1
				C27.367,1,1.51,26.857,1.51,58.64v70.87c0,31.783,25.857,57.64,57.64,57.64h70.87c31.783,0,57.64-25.857,57.64-57.64V58.64
				C187.66,26.857,161.802,1,130.02,1H59.149z M130.02,145.311h-70.87c-8.712,0-15.8-7.088-15.8-15.8V58.64
				c0-8.712,7.088-15.8,15.8-15.8h70.87c8.712,0,15.8,7.088,15.8,15.8v70.87C145.82,138.223,138.732,145.311,130.02,145.311z
				 M59.149,43.84c-8.161,0-14.8,6.639-14.8,14.8v70.87c0,8.161,6.639,14.8,14.8,14.8h70.87c8.161,0,14.8-6.639,14.8-14.8V58.64
				c0-8.161-6.639-14.8-14.8-14.8H59.149z"/>
		</g>
		<g>
			<path d="M59.149,396.672h70.87c32.059,0,58.14-26.082,58.14-58.141v-70.871c0-32.058-26.082-58.14-58.14-58.14h-70.87
				c-32.059,0-58.14,26.082-58.14,58.14v70.871C1.01,370.59,27.091,396.672,59.149,396.672z M43.85,267.661
				c0-8.45,6.85-15.3,15.3-15.3h70.87c8.45,0,15.3,6.85,15.3,15.3v70.871c0,8.449-6.85,15.299-15.3,15.299h-70.87
				c-8.45,0-15.3-6.85-15.3-15.299V267.661z"/>
			<path d="M130.02,397.172h-70.87c-32.334,0-58.64-26.306-58.64-58.641v-70.871c0-32.334,26.306-58.64,58.64-58.64h70.87
				c32.334,0,58.64,26.306,58.64,58.64v70.871C188.66,370.866,162.354,397.172,130.02,397.172z M59.149,210.021
				c-31.783,0-57.64,25.857-57.64,57.64v70.871c0,31.783,25.857,57.641,57.64,57.641h70.87c31.783,0,57.64-25.857,57.64-57.641
				v-70.871c0-31.783-25.857-57.64-57.64-57.64H59.149z M130.02,354.33h-70.87c-8.712,0-15.8-7.087-15.8-15.799v-70.871
				c0-8.712,7.088-15.8,15.8-15.8h70.87c8.712,0,15.8,7.088,15.8,15.8v70.871C145.82,347.243,138.732,354.33,130.02,354.33z
				 M59.149,252.861c-8.161,0-14.8,6.639-14.8,14.8v70.871c0,8.16,6.639,14.799,14.8,14.799h70.87c8.161,0,14.8-6.639,14.8-14.799
				v-70.871c0-8.161-6.639-14.8-14.8-14.8H59.149z"/>
		</g>
		<g>
			<path d="M1.01,547.553c0,32.059,26.081,58.139,58.14,58.139h70.87c32.059,0,58.14-26.08,58.14-58.139v-70.869
				c0-32.059-26.082-58.141-58.14-58.141h-70.87c-32.059,0-58.14,26.082-58.14,58.141V547.553z M43.85,476.684
				c0-8.451,6.85-15.301,15.3-15.301h70.87c8.45,0,15.3,6.85,15.3,15.301v70.869c0,8.449-6.85,15.301-15.3,15.301h-70.87
				c-8.45,0-15.3-6.852-15.3-15.301V476.684z"/>
			<path d="M130.02,606.191h-70.87c-32.334,0-58.64-26.306-58.64-58.639v-70.869c0-32.335,26.306-58.641,58.64-58.641h70.87
				c32.334,0,58.64,26.306,58.64,58.641v70.869C188.66,579.886,162.354,606.191,130.02,606.191z M59.149,419.043
				c-31.783,0-57.64,25.857-57.64,57.641v70.869c0,31.782,25.857,57.639,57.64,57.639h70.87c31.783,0,57.64-25.856,57.64-57.639
				v-70.869c0-31.783-25.857-57.641-57.64-57.641H59.149z M130.02,563.354h-70.87c-8.712,0-15.8-7.088-15.8-15.801v-70.869
				c0-8.713,7.088-15.801,15.8-15.801h70.87c8.712,0,15.8,7.088,15.8,15.801v70.869C145.82,556.266,138.732,563.354,130.02,563.354z
				 M59.149,461.883c-8.161,0-14.8,6.64-14.8,14.801v70.869c0,8.161,6.639,14.801,14.8,14.801h70.87c8.161,0,14.8-6.64,14.8-14.801
				v-70.869c0-8.161-6.639-14.801-14.8-14.801H59.149z"/>
		</g>
		<g>
			<path d="M547.043,0.5H266.591c-32.059,0-58.14,26.082-58.14,58.14v70.87c0,32.059,26.082,58.14,58.14,58.14h280.452
				c32.059,0,58.141-26.082,58.141-58.14V58.64C605.184,26.582,579.102,0.5,547.043,0.5z M562.344,129.51
				c0,8.45-6.85,15.3-15.301,15.3H266.591c-8.451,0-15.3-6.85-15.3-15.3V58.64c0-8.45,6.85-15.3,15.3-15.3h280.452
				c8.451,0,15.301,6.85,15.301,15.3V129.51L562.344,129.51z"/>
			<path d="M547.043,188.15H266.591c-32.334,0-58.64-26.306-58.64-58.64V58.64c0-32.334,26.306-58.64,58.64-58.64h280.452
				c32.335,0,58.641,26.306,58.641,58.64v70.87C605.684,161.845,579.378,188.15,547.043,188.15z M266.591,1
				c-31.783,0-57.64,25.857-57.64,57.64v70.87c0,31.783,25.857,57.64,57.64,57.64h280.452c31.783,0,57.641-25.857,57.641-57.64
				V58.64c0-31.783-25.857-57.64-57.641-57.64H266.591z M547.043,145.311H266.591c-8.712,0-15.8-7.088-15.8-15.8V58.64
				c0-8.712,7.088-15.8,15.8-15.8h280.452c8.713,0,15.801,7.088,15.801,15.8v70.87C562.844,138.223,555.756,145.311,547.043,145.311
				z M266.591,43.84c-8.161,0-14.8,6.639-14.8,14.8v70.87c0,8.161,6.64,14.8,14.8,14.8h280.452c8.161,0,14.801-6.639,14.801-14.8
				V58.64c0-8.161-6.64-14.8-14.801-14.8H266.591z"/>
		</g>
		<g>
			<path d="M547.043,209.521H266.591c-32.059,0-58.14,26.082-58.14,58.14v70.871c0,32.059,26.082,58.141,58.14,58.141h280.452
				c32.059,0,58.141-26.082,58.141-58.141v-70.871C605.184,235.603,579.102,209.521,547.043,209.521z M562.344,338.531
				c0,8.451-6.85,15.301-15.301,15.301H266.591c-8.451,0-15.3-6.85-15.3-15.301v-70.871c0-8.45,6.85-15.3,15.3-15.3h280.452
				c8.451,0,15.301,6.85,15.301,15.3V338.531L562.344,338.531z"/>
			<path d="M547.043,397.172H266.591c-32.334,0-58.64-26.306-58.64-58.641v-70.871c0-32.334,26.306-58.64,58.64-58.64h280.452
				c32.335,0,58.641,26.306,58.641,58.64v70.871C605.684,370.866,579.378,397.172,547.043,397.172z M266.591,210.021
				c-31.783,0-57.64,25.857-57.64,57.64v70.871c0,31.783,25.857,57.641,57.64,57.641h280.452c31.783,0,57.641-25.857,57.641-57.641
				v-70.871c0-31.783-25.857-57.64-57.641-57.64H266.591z M547.043,354.332H266.591c-8.712,0-15.8-7.088-15.8-15.801v-70.871
				c0-8.712,7.088-15.8,15.8-15.8h280.452c8.713,0,15.801,7.088,15.801,15.8v70.871
				C562.844,347.244,555.756,354.332,547.043,354.332z M266.591,252.861c-8.161,0-14.8,6.639-14.8,14.8v70.871
				c0,8.161,6.64,14.801,14.8,14.801h280.452c8.161,0,14.801-6.64,14.801-14.801v-70.871c0-8.161-6.64-14.8-14.801-14.8H266.591z"/>
		</g>
		<g>
			<path d="M547.043,418.543H266.591c-32.059,0-58.14,26.082-58.14,58.141v70.869c0,32.059,26.082,58.141,58.14,58.141h280.452
				c32.059,0,58.141-26.082,58.141-58.141v-70.869C605.184,444.623,579.102,418.543,547.043,418.543z M562.344,547.553
				c0,8.449-6.85,15.299-15.301,15.299H266.591c-8.451,0-15.3-6.85-15.3-15.299v-70.869c0-8.451,6.85-15.301,15.3-15.301h280.452
				c8.451,0,15.301,6.85,15.301,15.301V547.553L562.344,547.553z"/>
			<path d="M547.043,606.193H266.591c-32.334,0-58.64-26.306-58.64-58.641v-70.869c0-32.335,26.306-58.641,58.64-58.641h280.452
				c32.335,0,58.641,26.306,58.641,58.641v70.869C605.684,579.888,579.378,606.193,547.043,606.193z M266.591,419.043
				c-31.783,0-57.64,25.857-57.64,57.641v70.869c0,31.783,25.857,57.641,57.64,57.641h280.452c31.783,0,57.641-25.857,57.641-57.641
				v-70.869c0-31.783-25.857-57.641-57.641-57.641H266.591z M547.043,563.352H266.591c-8.712,0-15.8-7.087-15.8-15.799v-70.869
				c0-8.713,7.088-15.801,15.8-15.801h280.452c8.713,0,15.801,7.088,15.801,15.801v70.869
				C562.844,556.265,555.756,563.352,547.043,563.352z M266.591,461.883c-8.161,0-14.8,6.64-14.8,14.801v70.869
				c0,8.16,6.64,14.799,14.8,14.799h280.452c8.161,0,14.801-6.639,14.801-14.799v-70.869c0-8.161-6.64-14.801-14.801-14.801H266.591
				z"/>
		</g>
	</g>
</g>
</svg>